<svg width="271" height="233" viewBox="0 0 271 233" fill="none" xmlns="http://www.w3.org/2000/svg">
<g clip-path="url(#clip0_45_15306)">
<path d="M107.556 64.7723C107.622 65.0178 107.447 65.1877 107.189 65.1398C102.197 63.0816 84.8089 54.7757 84.5033 49.8091C102.954 57.4935 116.134 28.0167 113.986 17.7353C112.834 23.4614 101.721 30.6139 96.717 29.4946C96.1556 29.369 89.8433 36.7811 91.7567 38.1303C89.2842 41.9451 86.8129 60.658 83.6731 61.8325C83.5691 61.8714 83.4214 61.7991 83.3057 61.8325C70.7047 57.8277 60.1686 59.3323 52.4413 46.2147C47.3146 37.5117 51.4029 39.8307 57.0343 36.1091C68.1997 28.7304 64.3248 24.012 70.0781 13.8768C82.9169 -8.74057 109.426 0.390862 116.007 12.4069C123.817 26.6651 112.791 46.2256 125.193 61.6488C119.591 64.0325 108.766 63.6265 107.373 64.0374C106.65 64.2506 107.546 64.7357 107.556 64.7723Z" fill="#090814"/>
<path d="M66.476 28.768C66.476 14.7965 77.8008 3.47031 91.7708 3.47031C105.741 3.47031 117.066 14.7965 117.066 28.768C117.066 40.0989 109.616 49.6886 99.3491 52.9093L95.5779 55.9482L102.348 79.6479L94.4592 85.2296L69.5309 64.4536C69.5309 64.4536 74.9162 57.5935 77.8042 49.858C70.9784 45.3276 66.476 37.5751 66.476 28.768Z" fill="#FFB6B6"/>
<path d="M179.479 93.5846L161.356 156.569L143.029 143.848L164.626 88.8953C162.742 85.4067 162.274 80.8213 163.705 76.2888C166.208 68.3582 173.557 63.6088 180.12 65.6806C186.682 67.7525 189.973 75.861 187.47 83.7917C186.039 88.3242 183.023 91.8097 179.479 93.5846Z" fill="#FFB6B6"/>
<path d="M118.996 118.454H53.623V194.604H118.996V118.454Z" fill="#FFB6B6"/>
<path d="M164.602 233H12.3889C11.8957 232.962 11.5314 232.533 11.5633 232.04C11.5314 231.552 11.8957 231.123 12.3889 231.086H164.602C165.036 231.139 165.379 231.483 165.432 231.917C165.502 232.448 165.132 232.93 164.602 233Z" fill="#CCCCCC"/>
<path d="M75.5671 57.7327L60.0267 93.2259L61.5645 154.226H114.088L115.736 89.5003L96.2364 59.4406L75.5671 57.7327Z" fill="#EDB500"/>
<path d="M44.3452 71.856C44.3452 71.856 39.7956 202.376 27.5797 223.915C27.5797 223.915 44.4619 226.858 48.7557 220.772C53.0494 214.687 69.6104 174.173 69.7899 165.201C69.9694 156.229 75.1576 57.6888 75.1576 57.6888L44.3452 71.856Z" fill="#006172"/>
<path d="M94.8646 63.0273L96.2364 59.4406L131.069 73.2749C131.069 73.2749 129.443 203.71 143.545 216.89C143.545 216.89 119.987 215.767 119.205 215.227C118.422 214.687 101.32 147.239 101.32 147.239C101.32 147.239 109.472 115.993 110.102 102.651C110.731 89.3098 94.8646 63.0273 94.8646 63.0273Z" fill="#090814"/>
<path d="M49.6096 166.016L34.7817 211.079L33.8984 232.626H143.535L122.39 166.016H49.6096Z" fill="#090814"/>
<path d="M122.231 75.8249L131.069 73.2749L151.391 114.436L160.1 91.8914L181.618 98.04C181.618 98.04 171.837 161.519 157.051 158.105C142.264 154.69 122.231 119.83 122.231 119.83L122.231 75.8249Z" fill="#090814"/>
<path d="M35.1077 201.523L5.44788 158.401L19.0828 146.404L46.9537 193.336C50.5686 193.939 54.1815 196.198 56.6792 199.813C61.0494 206.138 60.3492 214.197 55.1153 217.814C49.8814 221.432 42.0958 219.236 37.7255 212.911C35.2279 209.297 34.3934 205.118 35.1077 201.523Z" fill="#FFB6B6"/>
<path d="M49.6095 75.4952L44.3452 71.856L1.28058 153.206C1.28058 153.206 -2.21498 158.112 2.34442 166.016C6.90382 173.92 30.3121 198.125 30.3121 198.125L48.7557 187.707L29.9706 152.694L47.6773 122.062L49.6095 75.4952Z" fill="#006172"/>
<path d="M113.986 17.7353C112.834 23.4614 89.8433 36.7811 91.7567 38.1303C89.2842 41.9451 86.8129 60.658 83.6731 61.8325C83.5691 61.8714 83.4214 61.7991 83.3057 61.8325C70.7047 57.8277 60.1686 59.3323 52.4413 46.2147C47.3146 37.5117 51.4029 39.8307 57.0343 36.1091C68.1997 28.7304 64.3248 24.012 70.0781 13.8768C82.9169 -8.74057 109.426 0.390862 116.007 12.4069C123.817 26.6651 116.134 28.0167 113.986 17.7353Z" fill="#090814"/>
<path d="M271 79.0572H105.625V229.335H271V79.0572Z" fill="#D6D6E3"/>
<path d="M259.378 218.601H115.469V113.8H259.378V218.601ZM116.231 217.839H258.616V114.562H116.231V217.839Z" fill="#090814"/>
<path d="M258.997 131.281H116.739V132.043H258.997V131.281Z" fill="#090814"/>
<path d="M136.681 113.737H135.919V217.775H136.681V113.737Z" fill="#090814"/>
<path d="M156.241 113.737H155.479V217.775H156.241V113.737Z" fill="#090814"/>
<path d="M175.802 113.737H175.039V217.775H175.802V113.737Z" fill="#090814"/>
<path d="M197.14 113.736H196.378V217.775H197.14V113.736Z" fill="#090814"/>
<path d="M217.589 113.736H216.827V217.774H217.589V113.736Z" fill="#090814"/>
<path d="M238.928 113.736H238.166V217.774H238.928V113.736Z" fill="#090814"/>
<path d="M259.441 148.48H117.184V149.242H259.441V148.48Z" fill="#090814"/>
<path d="M258.108 165.678H115.85V166.44H258.108V165.678Z" fill="#090814"/>
<path d="M257.663 182.877H115.405V183.639H257.663V182.877Z" fill="#090814"/>
<path d="M258.108 200.075H115.85V200.837H258.108V200.075Z" fill="#090814"/>
<path d="M151.916 188.951H138.198V192.762H151.916V188.951Z" fill="#1CC1DE"/>
<path d="M172.685 173.134H158.966V176.946H172.685V173.134Z" fill="#1CC1DE"/>
<path d="M213.078 136.166H199.359V139.978H213.078V136.166Z" fill="#1CC1DE"/>
<path d="M172.303 189.141H158.585V192.952H172.303V189.141Z" fill="#1CC1DE"/>
<rect x="175.5" y="149" width="21" height="17" fill="#F2CA50"/>
</g>
<defs>
<clipPath id="clip0_45_15306">
<rect width="271" height="233" fill="white"/>
</clipPath>
</defs>
</svg>
